<?xml version="1.0" encoding="UTF-8"?>
<svg id="Layer_2" data-name="Layer 2" xmlns="http://www.w3.org/2000/svg" width="37.2mm" height="8.02mm" viewBox="0 0 105.44 22.72">
  <defs>
    <style>
      .cls-1 {
        fill: #1b1b1a;
        stroke-width: 0px;
      }
    </style>
  </defs>
  <g id="Layer_1-2" data-name="Layer 1">
    <g>
      <path class="cls-1" d="m14.49,8.47c-.24.93-1.65,1.69-3.16,1.69H.63c-.42,0-.71-.29-.6-.64L2.26.63c.08-.34.5-.63.93-.63h10.7c1.51,0,2.54.76,2.32,1.69l-1.71,6.77Zm-4.39-5.79c.18-.66-.38-1.2-1.25-1.2h-.95l-1.83,7.2h.95c.87,0,1.71-.52,1.87-1.19l1.21-4.81Z"/>
      <path class="cls-1" d="m27.55,8.81c-.2.75-1.33,1.35-2.54,1.35h-7.3c-1.21,0-2.06-.61-1.85-1.35l.38-1.52c.22-.93,1.65-1.69,3.16-1.69h4.11l.36-1.41c.12-.54-.2-.97-.77-.97s-1.13.42-1.25.97l-.02.05c-.08.29-.38.51-.73.51h-3.37c-.34,0-.56-.22-.48-.51l.22-.85c.18-.75,1.31-1.35,2.52-1.35h7.06c1.21,0,2.04.61,1.85,1.35l-1.37,5.42Zm-4.6-1.02l.3-1.19h-2.02l-.36,1.41c-.12.54.2.97.77.97s1.13-.42,1.25-.97l.06-.22Z"/>
      <path class="cls-1" d="m40.48,9.65c-.08.29-.38.51-.73.51h-3.63c-.34,0-.56-.22-.48-.51l1.37-5.42.02-.05c.12-.54-.2-.97-.77-.97s-1.13.42-1.25.97l-1.39,5.47c-.08.29-.38.51-.73.51h-3.63c-.34,0-.56-.22-.48-.51l1.79-7.11c.08-.29.4-.51.75-.51h3.63l.36.39c.46-.24,1.05-.39,1.65-.39h3.25c1.21,0,2.04.61,1.85,1.35l-1.59,6.27Z"/>
      <path class="cls-1" d="m25.51,19.27c-.08.29-.38.51-.73.51h-3.63c-.34,0-.56-.22-.48-.51l1.37-5.42.02-.05c.12-.54-.2-.97-.77-.97s-1.13.42-1.25.97l-1.39,5.47c-.08.29-.38.51-.73.51h-3.63c-.34,0-.56-.22-.48-.51l1.79-7.11c.08-.29.4-.51.75-.51h3.63l.36.39c.46-.24,1.05-.39,1.65-.39h3.25c1.21,0,2.04.61,1.85,1.35l-1.59,6.27Z"/>
      <path class="cls-1" d="m46.76,9.65c-.08.29-.38.51-.73.51h-3.63c-.34,0-.56-.22-.48-.51l1.79-7.11c.08-.29.4-.51.75-.51h3.63c.34,0,.54.22.46.51l-1.79,7.11Zm2.2-8.69c-.08.29-.38.51-.73.51h-3.63c-.34,0-.56-.22-.48-.51l.12-.46c.06-.29.38-.51.73-.51h3.63c.34,0,.54.22.48.51l-.12.46Z"/>
      <path class="cls-1" d="m60.13,8.81c-.2.75-1.33,1.35-2.54,1.35h-7.3c-1.21,0-2.06-.61-1.85-1.35l1.37-5.42c.18-.75,1.33-1.35,2.54-1.35h7.3c1.21,0,2.04.61,1.85,1.35l-.42,1.61c-.18.75-1.33,1.35-2.54,1.35h-4.66l-.42,1.66c-.12.54.2.97.77.97s1.09-.41,1.25-.93c.08-.29.38-.51.73-.51h3.63c.34,0,.56.22.48.51l-.18.76Zm-3.97-3.47l.3-1.15c.12-.54-.2-.97-.77-.97s-1.13.42-1.25.97l-.3,1.15h2.02Z"/>
      <path class="cls-1" d="m67.08,10.16h-3.65c-1.21,0-2.06-.61-1.85-1.35l2.1-8.3c.06-.29.38-.51.73-.51h3.63c.34,0,.54.22.48.51l-1.91,7.5c-.12.54.2.97.77.97l-.28,1.19Z"/>
      <path class="cls-1" d="m38.23,21.37c-.18.76-1.33,1.35-2.54,1.35h-7.3c-1.21,0-2.04-.59-1.85-1.35l.12-.51c.08-.27.4-.51.75-.51h3.63c.34,0,.54.24.46.51l-.06.24c-.12.53.22.95.79.95s1.11-.42,1.23-.95l.5-1.96h-4.66c-1.21,0-2.04-.61-1.85-1.35l1.37-5.42c.08-.29.4-.51.75-.51h3.63c.34,0,.54.22.46.51l-1.25,4.96c-.14.54.2.97.77.97s1.11-.42,1.25-.97l1.25-4.96c.08-.29.4-.51.75-.51h3.63c.34,0,.54.22.46.51l-2.28,9.01Z"/>
      <path class="cls-1" d="m51.37,21.37c-.18.76-1.33,1.35-2.54,1.35h-8.69c-.34,0-.54-.22-.48-.51l.14-.51c.06-.27.38-.51.73-.51h6.15c.34,0,.67-.22.75-.51l.04-.2c.08-.29-.12-.51-.46-.51h-2.44c-.24,0-.4-.12-.48-.27l-.73-1.39h-.81c-1.15-.03-1.93-.63-1.75-1.35l.97-3.76c.18-.75,1.33-1.35,2.54-1.35h7.3c1.21,0,2.04.61,1.85,1.35l-.97,3.76c-.18.76-1.33,1.35-2.54,1.35h-4.92c.28.36.67.68,1.27.68h3.49c1.21,0,2.04.61,1.85,1.35l-.26,1.02Zm-2.96-7.37c.12-.54-.2-.97-.77-.97s-1.13.42-1.25.97l-.56,2.19c-.12.52.2.95.77.95s1.13-.42,1.25-.95l.56-2.19Z"/>
      <path class="cls-1" d="m65.22,18.62c-.2.75-1.33,1.35-2.54,1.35h-7.3c-1.21,0-2.06-.61-1.85-1.35l.38-1.52c.22-.93,1.65-1.69,3.16-1.69h4.11l.36-1.41c.12-.54-.2-.97-.77-.97s-1.13.42-1.25.97l-.02.05c-.08.29-.38.51-.73.51h-3.37c-.34,0-.56-.22-.48-.51l.22-.85c.18-.75,1.31-1.35,2.52-1.35h7.06c1.21,0,2.04.61,1.85,1.35l-1.37,5.42Zm-4.6-1.02l.3-1.19h-2.02l-.36,1.41c-.12.54.2.97.77.97s1.13-.42,1.25-.97l.06-.22Z"/>
      <path class="cls-1" d="m78.36,18.62c-.2.75-1.33,1.35-2.54,1.35h-7.3c-1.21,0-2.06-.61-1.85-1.35l.38-1.52c.22-.93,1.65-1.69,3.16-1.69h4.11l.36-1.41c.12-.54-.2-.97-.77-.97s-1.13.42-1.25.97l-.02.05c-.08.29-.38.51-.73.51h-3.37c-.34,0-.56-.22-.48-.51l.22-.85c.18-.75,1.31-1.35,2.52-1.35h7.06c1.21,0,2.04.61,1.85,1.35l-1.37,5.42Zm-4.6-1.02l.3-1.19h-2.02l-.36,1.41c-.12.54.2.97.77.97s1.13-.42,1.25-.97l.06-.22Z"/>
      <path class="cls-1" d="m91.67,14.44c-.08.29-.4.51-.73.51h-2.74c-.34,0-.56-.22-.48-.51l.12-.44c.12-.54-.2-.97-.77-.97s-1.13.42-1.25.97l-1.39,5.47c-.08.29-.38.51-.73.51h-3.63c-.34,0-.56-.22-.48-.51l1.79-7.11c.08-.29.4-.51.75-.51h3.63l.36.39c.46-.24,1.05-.39,1.65-.39h2.36c1.21,0,2.04.61,1.85,1.35l-.32,1.24Z"/>
      <path class="cls-1" d="m103.12,19.47c-.08.29-.38.51-.73.51h-3.63l-.38-.39c-.46.24-1.03.39-1.63.39h-3.25c-1.21,0-2.06-.61-1.85-1.35l1.37-5.42c.18-.75,1.33-1.35,2.54-1.35h3.25c.54,0,.99.12,1.31.32l.48-1.85c.06-.29.38-.51.73-.51h3.63c.34,0,.54.22.48.51l-2.32,9.15Zm-3.45-5.47c.12-.54-.2-.97-.77-.97s-1.13.42-1.25.97l-.99,3.83c-.12.54.2.97.77.97s1.13-.42,1.25-.97l.99-3.83Z"/>
    </g>
  </g>
</svg>